<svg width="32" height="32" xmlns="http://www.w3.org/2000/svg"><g fill="none" fill-rule="evenodd"><path fill="#E4F6F2" d="M0 0h32v32H0z"/><path d="M11.76 19.224c.208.224.452.452.732.684.28.232.592.444.936.636.344.192.72.348 1.128.468.408.12.844.18 1.308.18.272 0 .544-.04.816-.12.272-.08.52-.196.744-.348.224-.152.404-.336.54-.552.136-.216.204-.46.204-.732 0-.592-.288-1.052-.864-1.38-.576-.328-1.488-.652-2.736-.972a7.228 7.228 0 0 1-1.692-.624c-.52-.272-.968-.6-1.344-.984a4.181 4.181 0 0 1-.876-1.32 4.242 4.242 0 0 1-.312-1.656c0-.672.12-1.304.36-1.896a4.394 4.394 0 0 1 1.092-1.572c.488-.456 1.096-.816 1.824-1.08.728-.264 1.588-.396 2.58-.396.816 0 1.536.084 2.16.252a7.764 7.764 0 0 1 1.596.6c.44.232.8.472 1.08.72s.492.444.636.588l-2.088 2.304c-.176-.144-.38-.3-.612-.468a5.589 5.589 0 0 0-.78-.468 5.302 5.302 0 0 0-.948-.36 4.045 4.045 0 0 0-1.092-.144 2.615 2.615 0 0 0-1.428.444c-.2.136-.36.296-.48.48s-.18.38-.18.588c0 .544.288.984.864 1.32.576.336 1.368.616 2.376.84.592.144 1.172.34 1.74.588a5.688 5.688 0 0 1 1.524.972c.448.4.808.892 1.08 1.476s.408 1.292.408 2.124c0 .72-.16 1.384-.48 1.992a5.062 5.062 0 0 1-1.308 1.584c-.552.448-1.2.796-1.944 1.044a7.582 7.582 0 0 1-2.412.372c-.8 0-1.528-.076-2.184-.228a8.893 8.893 0 0 1-1.776-.6 8.024 8.024 0 0 1-2.52-1.836l2.328-2.52z" fill="#000"/></g></svg>